<svg xmlns="http://www.w3.org/2000/svg" viewBox="0 0 250.95 128.21"><defs><style>.cls-1{fill:#231f20;}</style></defs><title>logo-svg_2</title><g id="Layer_2" data-name="Layer 2"><g id="Layer_2-2" data-name="Layer 2"><path d="M187.49,41.44c-5.07-8.1-1.69-10.74-6-18.68C174.39,9.46,155.32-.95,133.12.07c-28.59,1.31-43.62,24.55-75.42,28C99,25.54,99.32,4.1,133.27,2.54,164.6,1.1,180,20.58,180.8,27.26c-10.8,9-25.36-4-47.25.1,0,0-4.77-9.66-11.07-8s-7.91,7.7-7.71,12.13c-6.61,2.55-31.62,21.12-57,23.32,35.69,1.48,41.22,1.16,52.9,4.34,17.82,4.87,35,8,57.06,7,17.6-.81,28.69-6.11,30-15.11C198.16,47.69,191.69,48.14,187.49,41.44ZM175.57,58.08c-4.29,2.66-28,2.39-35.83,2.33s-2.85-4.79-2.88-7.33-7.6-3-7.54-11.1c.07-10.42,7.56-12.55,16.34-11.42C141.58,34.13,140,40.81,147,42.87s11-6,17.8-6.21S181.26,41.72,183.19,47C178.91,51.4,179.85,55.43,175.57,58.08Z"/><path class="cls-1" d="M0,51.32H15.42v3.09H9.25V66.7H6.17V54.41H0Z"/><path class="cls-1" d="M18,51.32H21.1v6.17h9.25V51.32h3.08V66.7H30.35V60.57H21.1V66.7H18Z"/><path class="cls-1" d="M36,51.32H51.45v3.09H39.12v3.08h9.25v3.08H39.12v3.08H51.45V66.7H36Z"/><path class="cls-1" d="M199.5,112.84h3.08v12.33h12.33v3H199.5Z"/><path class="cls-1" d="M217.51,115.92h3.09V119h9.25v-3.09h3.08v12.29h-3.08v-6.12H220.6v6.12h-3.09Zm3.09-3.08h9.25v3.08H220.6Z"/><path class="cls-1" d="M235.53,112.84h12.34v3.08h-9.25V119h9.25v3.08h-9.25v3.08h9.25v3H235.53Zm12.34,3.08H251V119h-3.08Zm0,6.17H251v3.08h-3.08Z"/><path class="cls-1" d="M.09,69.71H29.4V77h-22v7.33h22v7.32h-22V99h22v7.23H.09ZM29.4,77h7.32v7.33H29.4Zm0,14.65h7.32V99H29.4Z"/><path class="cls-1" d="M42.91,77h7.32v7.33h22V77h7.33v29.21H72.21V91.68h-22v14.56H42.91Zm7.32-7.32h22V77h-22Z"/><path class="cls-1" d="M85.72,69.71H115V77h-22V99h22v7.23H85.72ZM115,77h7.32V99H115Z"/><path class="cls-1" d="M128.54,77h7.33V99h-7.33Zm7.33-7.32h29.3V77h-29.3Zm0,29.3h22v7.23h-22Zm7.32-14.65h22V99h-7.33V91.68H143.19Z"/><path class="cls-1" d="M171.36,69.71H208V77H178.68v7.33h22v7.32h-22V99H208v7.23H171.36Z"/><path class="cls-1" d="M214.17,69.71h29.31V77h-22v7.33h22v7.32h-22v14.56h-7.33ZM243.48,77h7.32v7.33h-7.32Zm0,14.65h7.32v14.56h-7.32Z"/></g></g></svg>