<svg xmlns="http://www.w3.org/2000/svg" viewBox="0 0 267.51 210.63"><defs><style>.cls-1{font-size:21.33px;}.cls-1,.cls-2{fill:#231f20;font-family:RetroComputer, Retro Computer;}.cls-2{font-size:50.69px;}</style></defs><title>logo</title><g id="Layer_2" data-name="Layer 2"><g id="Layer_2-2" data-name="Layer 2"><path d="M245.45,82.59c-8.84-15.69-2.25-20.37-9.59-35.68C223.56,21.24,188.56,0,146.67,0,92.75,0,62.43,42.44,2.27,46.23,80.3,45,82.69,4.67,146.75,4.67c59.09,0,86.37,38,87.34,50.65-21.1,15.91-47.4-9.74-89-3.9,0,0-8.14-18.6-20.16-16s-15.55,13.81-15.55,22.17C96.75,61.81,48.05,94.6,0,96.55c67.06,5.88,64.42,43.14,103.06,27.23s61.41,3.7,103,3.7c33.18,0,54.52-9,57.75-25.85C265,95.28,252.77,95.57,245.45,82.59Zm-21.87,32.92c-8.3,4.63-53,2.08-67.65,1.28s-5-9.25-4.79-14-14-6.38-13.24-21.54c1-19.62,15.31-23,31.75-20.1-8,6.38-11.49,18.82,1.43,23.29s21.28-10.3,34-10.14,30.58,10.94,33.77,21C230.44,103.23,231.87,110.89,223.58,115.51Z"/><text class="cls-1" transform="translate(12.31 146.07)">The</text><text class="cls-1" transform="translate(211.81 207.59)">Lab</text><text class="cls-2" transform="translate(10.61 185.61)">Badger</text></g></g></svg>