<svg xmlns="http://www.w3.org/2000/svg" viewBox="0 0 371.42 77.4"><defs><style>.cls-1{fill:#231f20;}</style></defs><title>logo-svg_1</title><g id="Layer_2" data-name="Layer 2"><g id="Layer_2-2" data-name="Layer 2"><path d="M363.38,36.08c-3.87-6.85-1-8.9-4.19-15.59C353.81,9.28,338.52,0,320.22,0c-23.56,0-36.8,18.54-63.08,20.2C291.23,19.66,292.27,2,320.26,2c25.81,0,37.73,16.6,38.15,22.13-9.22,7-20.71-4.26-38.86-1.71,0,0-3.56-8.12-8.81-7s-6.79,6-6.79,9.69c-5.54,1.84-26.81,16.17-47.8,17,29.29,2.57,28.14,18.85,45,11.9s26.83,1.61,45,1.61c14.5,0,23.82-3.94,25.23-11.29C371.92,41.62,366.57,41.75,363.38,36.08Zm-9.56,14.38c-3.63,2-23.14.91-29.55.56s-2.17-4-2.1-6.13-6.13-2.79-5.78-9.41c.45-8.57,6.69-10,13.87-8.78-3.49,2.78-5,8.22.62,10.17s9.3-4.5,14.88-4.43,13.36,4.78,14.75,9.17C356.82,45.1,357.44,48.44,353.82,50.46Z"/><path class="cls-1" d="M0,.5H15.42V3.59H9.25V15.88H6.17V3.59H0Z"/><path class="cls-1" d="M18,.5H21.1V6.67h9.25V.5h3.08V15.88H30.35V9.75H21.1v6.13H18Z"/><path class="cls-1" d="M36,.5H51.45V3.59H39.12V6.67h9.25V9.75H39.12v3.09H51.45v3H36Z"/><path class="cls-1" d="M199.5,62h3.08V74.35h12.33V77.4H199.5Z"/><path class="cls-1" d="M217.51,65.11h3.09v3.08h9.25V65.11h3.08V77.4h-3.08V71.27H220.6V77.4h-3.09ZM220.6,62h9.25v3.09H220.6Z"/><path class="cls-1" d="M235.53,62h12.34v3.09h-9.25v3.08h9.25v3.08h-9.25v3.08h9.25V77.4H235.53Zm12.34,3.09H251v3.08h-3.08Zm0,6.16H251v3.08h-3.08Z"/><path class="cls-1" d="M.09,18.89H29.4v7.32h-22v7.33h22v7.33h-22v7.32h22v7.23H.09ZM29.4,26.21h7.32v7.33H29.4Zm0,14.66h7.32v7.32H29.4Z"/><path class="cls-1" d="M42.91,26.21h7.32v7.33h22V26.21h7.33V55.42H72.21V40.87h-22V55.42H42.91Zm7.32-7.32h22v7.32h-22Z"/><path class="cls-1" d="M85.72,18.89H115v7.32h-22v22h22v7.23H85.72ZM115,26.21h7.32v22H115Z"/><path class="cls-1" d="M128.54,26.21h7.33v22h-7.33Zm7.33-7.32h29.3v7.32h-29.3Zm0,29.3h22v7.23h-22Zm7.32-14.65h22V48.19h-7.33V40.87H143.19Z"/><path class="cls-1" d="M171.36,18.89H208v7.32H178.68v7.33h22v7.33h-22v7.32H208v7.23H171.36Z"/><path class="cls-1" d="M214.17,18.89h29.31v7.32h-22v7.33h22v7.33h-22V55.42h-7.33Zm29.31,7.32h7.32v7.33h-7.32Zm0,14.66h7.32V55.42h-7.32Z"/></g></g></svg>