<svg xmlns="http://www.w3.org/2000/svg" viewBox="0 0 264.56 207.59"><defs><style>.cls-1{fill:#231f20;}</style></defs><title>logo-svg</title><g id="Layer_2" data-name="Layer 2"><g id="Layer_2-2" data-name="Layer 2"><path d="M245.45,82.59c-8.84-15.69-2.25-20.37-9.59-35.68C223.56,21.24,188.56,0,146.67,0,92.75,0,62.43,42.44,2.27,46.23,80.3,45,82.69,4.67,146.75,4.67c59.09,0,86.37,38,87.34,50.65-21.1,15.91-47.4-9.74-89-3.9,0,0-8.14-18.6-20.16-16s-15.55,13.81-15.55,22.17C96.75,61.81,48.05,94.6,0,96.55c67.06,5.88,64.42,43.14,103.06,27.23s61.41,3.7,103,3.7c33.18,0,54.52-9,57.75-25.85C265,95.28,252.77,95.57,245.45,82.59Zm-21.87,32.92c-8.3,4.63-53,2.08-67.65,1.28s-5-9.25-4.79-14-14-6.38-13.24-21.54c1-19.62,15.31-23,31.75-20.1-8,6.38-11.49,18.82,1.43,23.29s21.28-10.3,34-10.14,30.58,10.94,33.77,21C230.44,103.23,231.87,110.89,223.58,115.51Z"/><path class="cls-1" d="M13.61,130.69H29v3.09H22.86v12.29H19.78V133.78H13.61Z"/><path class="cls-1" d="M31.63,130.69h3.08v6.17H44v-6.17h3.09v15.38H44v-6.13H34.71v6.13H31.63Z"/><path class="cls-1" d="M49.65,130.69H65.06v3.09H52.73v3.08H62v3.08H52.73V143H65.06v3H49.65Z"/><path class="cls-1" d="M213.11,192.21h3.08v12.33h12.33v3.05H213.11Z"/><path class="cls-1" d="M231.13,195.3h3.08v3.08h9.25V195.3h3.08v12.29h-3.08v-6.13h-9.25v6.13h-3.08Zm3.08-3.09h9.25v3.09h-9.25Z"/><path class="cls-1" d="M249.15,192.21h12.33v3.09h-9.25v3.08h9.25v3.08h-9.25v3.08h9.25v3.05H249.15Zm12.33,3.09h3.08v3.08h-3.08Zm0,6.16h3.08v3.08h-3.08Z"/><path class="cls-1" d="M13.7,149.08H43v7.32H21v7.33H43v7.33H21v7.32H43v7.23H13.7ZM43,156.4h7.32v7.33H43Zm0,14.66h7.32v7.32H43Z"/><path class="cls-1" d="M56.52,156.4h7.33v7.33h22V156.4h7.33v29.21H85.82V171.06h-22v14.55H56.52Zm7.33-7.32h22v7.32h-22Z"/><path class="cls-1" d="M99.34,149.08h29.3v7.32h-22v22h22v7.23H99.34Zm29.3,7.32H136v22h-7.32Z"/><path class="cls-1" d="M142.15,156.4h7.33v22h-7.33Zm7.33-7.32h29.3v7.32h-29.3Zm0,29.3h22v7.23h-22Zm7.32-14.65h22v14.65h-7.32v-7.32H156.8Z"/><path class="cls-1" d="M185,149.08H221.6v7.32H192.29v7.33h22v7.33h-22v7.32H221.6v7.23H185Z"/><path class="cls-1" d="M227.79,149.08h29.3v7.32h-22v7.33h22v7.33h-22v14.55h-7.32Zm29.3,7.32h7.32v7.33h-7.32Zm0,14.66h7.32v14.55h-7.32Z"/></g></g></svg>